<svg version="1.1" id="Layer_1" xmlns="http://www.w3.org/2000/svg" xmlns:xlink="http://www.w3.org/1999/xlink" x="0px" y="0px"
	 width="100%" viewBox="0 0 100 100" enable-background="new 0 0 100 100" xml:space="preserve">
<path fill="#000000" opacity="1.000000" stroke="none" 
	d="
M59.000000,101.000000 
	C39.333336,101.000000 20.166674,101.000000 1.000008,101.000000 
	C1.000005,67.666679 1.000005,34.333351 1.000003,1.000021 
	C34.333317,1.000014 67.666634,1.000014 100.999969,1.000007 
	C100.999977,34.333313 100.999977,67.666626 100.999985,100.999969 
	C87.166664,101.000000 73.333336,101.000000 59.000000,101.000000 
M20.000042,19.646408 
	C20.000307,24.138920 19.658766,28.669353 20.151123,33.107269 
	C20.382652,35.194195 21.755232,37.703243 23.412477,38.981819 
	C28.677401,43.043739 34.288216,46.663700 39.830402,50.356850 
	C42.168663,51.914993 43.192390,53.667294 43.105431,56.716595 
	C42.823318,66.609085 42.999985,76.514656 42.999985,87.016235 
	C45.628246,85.860313 47.614281,84.538521 49.776218,84.115326 
	C58.149635,82.476234 59.949940,77.194862 59.128105,69.490807 
	C58.532696,63.909317 57.405361,57.336269 59.689140,52.805088 
	C61.770805,48.674904 68.301399,46.929482 72.540581,43.699230 
	C75.933441,41.113876 80.713646,38.320591 81.534149,34.832901 
	C83.000816,28.598545 81.947166,21.771271 81.947166,15.001917 
	C61.842785,15.001917 42.388367,15.065585 22.935215,14.937221 
	C19.810589,14.916603 19.863522,16.567120 20.000042,19.646408 
z"/>
<path fill="#00ABEC" opacity="1.000000" stroke="none" 
	d="
M20.000179,19.164682 
	C19.863522,16.567120 19.810589,14.916603 22.935215,14.937221 
	C42.388367,15.065585 61.842785,15.001917 81.947166,15.001917 
	C81.947166,21.771271 83.000816,28.598545 81.534149,34.832901 
	C80.713646,38.320591 75.933441,41.113876 72.540581,43.699230 
	C68.301399,46.929482 61.770805,48.674904 59.689140,52.805088 
	C57.405361,57.336269 58.532696,63.909317 59.128105,69.490807 
	C59.949940,77.194862 58.149635,82.476234 49.776218,84.115326 
	C47.614281,84.538521 45.628246,85.860313 42.999985,87.016235 
	C42.999985,76.514656 42.823318,66.609085 43.105431,56.716595 
	C43.192390,53.667294 42.168663,51.914993 39.830402,50.356850 
	C34.288216,46.663700 28.677401,43.043739 23.412477,38.981819 
	C21.755232,37.703243 20.382652,35.194195 20.151123,33.107269 
	C19.658766,28.669353 20.000307,24.138920 20.000179,19.164682 
z"/>
</svg>