<svg id="Layer_1" data-name="Layer 1" xmlns="http://www.w3.org/2000/svg" viewBox="0 0 703.08 109.74"><defs><style>.cls-1{fill:#29ace3;}.cls-2{fill:#0c8bcd;}</style></defs><path class="cls-1" d="M187.58,446.29a35.79,35.79,0,0,1-15.47-3.1,28.9,28.9,0,0,1-10.72-8.56,37.07,37.07,0,0,1-6.25-12.93,61.71,61.71,0,0,1-2-16.3,62.83,62.83,0,0,1,2-16.41,37.48,37.48,0,0,1,6.25-13.1,28.65,28.65,0,0,1,10.72-8.62,40.27,40.27,0,0,1,30.94,0,28.65,28.65,0,0,1,10.72,8.62A37.47,37.47,0,0,1,220,389a62.4,62.4,0,0,1,2.05,16.41A61.29,61.29,0,0,1,220,421.7a37,37,0,0,1-6.24,12.93,28.9,28.9,0,0,1-10.72,8.56A35.82,35.82,0,0,1,187.58,446.29Zm0-13.49q17.13,0,17.13-27.4,0-13.71-4.15-20.56T187.69,378q-17.35,0-17.35,27.41T187.58,432.8Z" transform="translate(-153.1 -362.74)"/><path class="cls-1" d="M235.43,387.83a27.4,27.4,0,0,1,3.1-.5,32.31,32.31,0,0,1,3.42-.17,29.45,29.45,0,0,1,3.32.17,29,29,0,0,1,3,.5,6.46,6.46,0,0,1,.61,1.6c.18.7.35,1.43.5,2.21s.27,1.53.38,2.26.2,1.37.28,1.88a25.61,25.61,0,0,1,2.65-3.31,19.2,19.2,0,0,1,3.59-3,19.59,19.59,0,0,1,4.59-2.15,18.16,18.16,0,0,1,5.64-.83q9.72,0,14.64,5.3t4.92,16.69V445a47,47,0,0,1-15.7,0V412.69c0-4-.6-7-1.82-9.17s-3.33-3.21-6.35-3.21a14.31,14.31,0,0,0-3.87.56,8,8,0,0,0-3.59,2.15,11.53,11.53,0,0,0-2.6,4.48,23.51,23.51,0,0,0-1,7.51V445a47,47,0,0,1-15.69,0Z" transform="translate(-153.1 -362.74)"/><path class="cls-1" d="M299.86,364.18a46.84,46.84,0,0,1,7.85-.67,46.16,46.16,0,0,1,7.73.67v58a31.39,31.39,0,0,0,.39,5.52,8.06,8.06,0,0,0,1.22,3.26,4.22,4.22,0,0,0,2.15,1.6,10.44,10.44,0,0,0,3.32.45c.58,0,1.23,0,1.93-.11a18.87,18.87,0,0,0,2-.34,34.14,34.14,0,0,1,1.22,8.84V443a6.51,6.51,0,0,1-.22,1.6,20.63,20.63,0,0,1-4.26.77c-1.65.15-3.18.22-4.58.22q-8.52,0-13.65-4.69t-5.14-15.31Z" transform="translate(-153.1 -362.74)"/><path class="cls-1" d="M329.48,387.83a24.78,24.78,0,0,1,4.47-.61c1.29,0,2.49-.06,3.59-.06,1.48,0,3,0,4.54.11a23.22,23.22,0,0,1,4.19.56l11.94,49.84,13.48-49.84a41.25,41.25,0,0,1,7.52-.67c1.1,0,2.28,0,3.53.06a29,29,0,0,1,4.65.61l-21.33,70.61a28.54,28.54,0,0,1-3.15,7,15.18,15.18,0,0,1-4.15,4.31,14.67,14.67,0,0,1-5.19,2.15,29.6,29.6,0,0,1-6.19.61,36.27,36.27,0,0,1-5.58-.39,45.79,45.79,0,0,1-4.92-1,5.23,5.23,0,0,1-.11-.94v-.83a20,20,0,0,1,.61-5,35.69,35.69,0,0,1,1.49-4.59,19,19,0,0,0,2.65.61,20.65,20.65,0,0,0,3.32.27,21.42,21.42,0,0,0,2.65-.16,6.08,6.08,0,0,0,2.6-1,8.26,8.26,0,0,0,2.37-2.59,19.18,19.18,0,0,0,2-5l1.88-6.85c-.81.07-1.71.13-2.71.17s-2,.05-3,.05h-2.32a8.14,8.14,0,0,1-2-.22Z" transform="translate(-153.1 -362.74)"/><path class="cls-2" d="M396,365.5H441.1a34.46,34.46,0,0,1,.66,6.74,35.76,35.76,0,0,1-.66,7h-29v18.67h23a37.33,37.33,0,0,1,.66,6.85,36.83,36.83,0,0,1-.66,7h-23V445A49.6,49.6,0,0,1,396,445Z" transform="translate(-153.1 -362.74)"/><path class="cls-2" d="M450.93,387.83c1.11-.23,2.16-.39,3.15-.5a29.77,29.77,0,0,1,3.26-.17,25,25,0,0,1,3.26.22c1.07.15,2.12.34,3.15.56a6.63,6.63,0,0,1,.61,1.6c.18.7.35,1.44.5,2.21s.27,1.55.38,2.32.21,1.42.28,1.93a28.6,28.6,0,0,1,6-6.13,14.06,14.06,0,0,1,8.84-2.71c.73,0,1.58,0,2.54.11a10.45,10.45,0,0,1,2.1.33,20.43,20.43,0,0,1,.33,2.55c.07,1,.11,2,.11,3,0,1.25-.05,2.62-.16,4.09a30.31,30.31,0,0,1-.61,4.2,14.94,14.94,0,0,0-2.71-.22h-1.82a26.56,26.56,0,0,0-4.2.38,9.63,9.63,0,0,0-4.42,2.05,12,12,0,0,0-3.48,5,24.68,24.68,0,0,0-1.39,9.28v27.19a35.7,35.7,0,0,1-4,.44c-1.33.08-2.62.11-3.87.11s-2.53,0-3.82-.11a39.94,39.94,0,0,1-4-.44Z" transform="translate(-153.1 -362.74)"/><path class="cls-2" d="M498.45,399.76h-7.4a25,25,0,0,1-.5-3,29.8,29.8,0,0,1-.17-3,26,26,0,0,1,.67-5.85h22.76V445a47.2,47.2,0,0,1-7.73.66,46.66,46.66,0,0,1-7.63-.66Zm-2.32-21.55a42.66,42.66,0,0,1-.66-7.4,44.1,44.1,0,0,1,.66-7.41c1.25-.22,2.6-.38,4-.5s2.75-.16,3.93-.16,2.61.05,4.09.16,2.83.28,4.09.5a34.78,34.78,0,0,1,.44,3.7c.07,1.22.11,2.45.11,3.71s0,2.39-.11,3.64a34.1,34.1,0,0,1-.44,3.76,32.65,32.65,0,0,1-4,.44c-1.44.08-2.78.11-4,.11s-2.51,0-4-.11A32.65,32.65,0,0,1,496.13,378.21Z" transform="translate(-153.1 -362.74)"/><path class="cls-2" d="M541.77,421.2q.45,6.63,4.64,9.62t11.05,3a42.6,42.6,0,0,0,7.69-.72,44.21,44.21,0,0,0,7.46-2,25.66,25.66,0,0,1,2.1,5.3,27.38,27.38,0,0,1,1,6.63,53.86,53.86,0,0,1-19.45,3.32,37.77,37.77,0,0,1-13.65-2.21A23.52,23.52,0,0,1,528,428.6a39,39,0,0,1-1.71-11.82A38.49,38.49,0,0,1,528.07,405a27.67,27.67,0,0,1,5.25-9.62,24.8,24.8,0,0,1,8.62-6.46,28.19,28.19,0,0,1,12-2.38,25.5,25.5,0,0,1,10.61,2.1,23.28,23.28,0,0,1,7.9,5.75,24.32,24.32,0,0,1,4.92,8.67A34.38,34.38,0,0,1,579,413.8c0,1.4-.06,2.78-.17,4.14s-.24,2.45-.39,3.26Zm22.44-10.94a14,14,0,0,0-2.93-8.57,9.31,9.31,0,0,0-7.57-3.25q-5.54,0-8.4,3.09t-3.43,8.73Z" transform="translate(-153.1 -362.74)"/><path class="cls-2" d="M591.39,387.83a27.76,27.76,0,0,1,3.1-.5,32.31,32.31,0,0,1,3.42-.17,29.32,29.32,0,0,1,3.32.17,28.51,28.51,0,0,1,3,.5,6.09,6.09,0,0,1,.61,1.6c.18.7.35,1.43.5,2.21s.27,1.53.39,2.26.2,1.37.27,1.88a26.49,26.49,0,0,1,2.65-3.31,19,19,0,0,1,3.6-3,19.51,19.51,0,0,1,4.58-2.15,18.2,18.2,0,0,1,5.64-.83q9.72,0,14.64,5.3T642,408.49V445a47,47,0,0,1-15.69,0V412.69c0-4-.61-7-1.83-9.17s-3.33-3.21-6.35-3.21a14.37,14.37,0,0,0-3.87.56,8.08,8.08,0,0,0-3.59,2.15,11.53,11.53,0,0,0-2.6,4.48,23.54,23.54,0,0,0-1,7.51V445a47,47,0,0,1-15.7,0Z" transform="translate(-153.1 -362.74)"/><path class="cls-2" d="M690.52,364.18a36.12,36.12,0,0,1,3.93-.45c1.28-.07,2.55-.11,3.81-.11s2.54,0,3.87.11a36.18,36.18,0,0,1,4,.45v78.9a78.21,78.21,0,0,1-10.56,2.38,86.89,86.89,0,0,1-13,.83,38.87,38.87,0,0,1-11.22-1.61,25.57,25.57,0,0,1-9.45-5.08,24.08,24.08,0,0,1-6.47-9,37.59,37.59,0,0,1-.33-25.36,28.43,28.43,0,0,1,5.86-9.67,27.62,27.62,0,0,1,9.23-6.46,29.54,29.54,0,0,1,12-2.38c1.33,0,2.71.06,4.15.17a22.1,22.1,0,0,1,4.14.71Zm0,35.47a30,30,0,0,0-3.59-.72,30.37,30.37,0,0,0-3.48-.16,12.88,12.88,0,0,0-6.35,1.49,13.19,13.19,0,0,0-4.48,4,17.08,17.08,0,0,0-2.6,5.85,29.46,29.46,0,0,0-.83,7,23.25,23.25,0,0,0,1.11,7.68,12.66,12.66,0,0,0,3,5,11.37,11.37,0,0,0,4.58,2.71,19.3,19.3,0,0,0,5.75.83,32.65,32.65,0,0,0,3.43-.17,19.45,19.45,0,0,0,3.42-.72Z" transform="translate(-153.1 -362.74)"/><path class="cls-2" d="M721.36,445a49.37,49.37,0,0,1-.67-8.07,51.63,51.63,0,0,1,.67-8.18,50.44,50.44,0,0,1,8.06-.66,52.6,52.6,0,0,1,8.18.66,52.2,52.2,0,0,1,.66,8.07,51.18,51.18,0,0,1-.66,8.18,52,52,0,0,1-8.07.66A51.14,51.14,0,0,1,721.36,445Z" transform="translate(-153.1 -362.74)"/><path class="cls-1" d="M791.53,431.48a22.48,22.48,0,0,1,2.21,5.14,23.93,23.93,0,0,1,.89,6.9,34.15,34.15,0,0,1-8.29,2.27,63.58,63.58,0,0,1-8.07.5A31.65,31.65,0,0,1,765.78,444a24,24,0,0,1-8.78-6.24,26.33,26.33,0,0,1-5.25-9.45,40.88,40.88,0,0,1-.06-23.6,26.93,26.93,0,0,1,5.2-9.5,24.24,24.24,0,0,1,8.67-6.41,29.24,29.24,0,0,1,12.05-2.32c1.62,0,3.11,0,4.47.11a32.34,32.34,0,0,1,3.93.44,34,34,0,0,1,3.75.89c1.26.37,2.66.84,4.2,1.43a28,28,0,0,1-.66,5.69,24.8,24.8,0,0,1-2.1,6,35.22,35.22,0,0,0-5.8-1.49,37.12,37.12,0,0,0-5.69-.39q-6.86,0-10.34,4.47t-3.48,12.77q0,9,3.76,13t10.17,4.09c1.1,0,2.11,0,3-.06a21.66,21.66,0,0,0,2.7-.27,18.79,18.79,0,0,0,2.71-.67C789.19,432.29,790.28,431.92,791.53,431.48Z" transform="translate(-153.1 -362.74)"/><path class="cls-1" d="M805.46,364.18a32.07,32.07,0,0,1,3.86-.45c1.33-.07,2.62-.11,3.87-.11s2.54,0,3.87.11a35.91,35.91,0,0,1,4,.45v30.39c.51-.67,1.19-1.46,2-2.38a18.18,18.18,0,0,1,3.15-2.65,18.52,18.52,0,0,1,4.53-2.16,19.22,19.22,0,0,1,6.08-.88q9.51,0,14.42,5.3t4.92,16.69v36.58a35.61,35.61,0,0,1-4,.44c-1.32.08-2.61.11-3.87.11s-2.54,0-3.86-.11a35.61,35.61,0,0,1-4-.44V412.69c0-4-.63-7-1.88-9.17s-3.39-3.21-6.41-3.21a14.43,14.43,0,0,0-3.87.56,8.14,8.14,0,0,0-3.59,2.15,12.09,12.09,0,0,0-2.65,4.48A22.29,22.29,0,0,0,821,415v30.06a35.88,35.88,0,0,1-4,.44c-1.33.08-2.62.11-3.87.11s-2.52,0-3.81-.11a35.62,35.62,0,0,1-3.92-.44Z" transform="translate(-153.1 -362.74)"/></svg>